<svg width="34" height="34" viewBox="0 0 34 34" fill="none" xmlns="http://www.w3.org/2000/svg">
<path d="M26.1236 9.08437L18.146 5.27163C17.2998 4.86294 16.3021 4.91824 15.506 5.41853L7.27404 10.6023C6.47795 11.1026 5.99594 11.9796 6.00003 12.9193L6.03036 21.7349C6.03453 22.7769 6.63214 23.7265 7.57049 24.1811L15.5481 27.9939C16.3943 28.4026 17.392 28.3473 18.1881 27.847L26.42 22.6631C27.2161 22.1628 27.6981 21.2859 27.694 20.3462L27.6786 15.6066L27.6654 11.5306C27.6613 10.4885 27.0636 9.53904 26.127 9.08607L26.1236 9.08437Z" stroke="#1D1F20" stroke-miterlimit="10"/>
<path d="M8.26953 12.915C8.3914 12.8396 8.77695 12.6393 9.22168 12.8545L10.5537 13.498H10.5547L15.4473 15.8652L15.4512 15.8662C16.1646 16.2195 16.6272 16.9574 16.6299 17.7559L16.6494 23.3613H16.6475L16.6523 24.666V24.668C16.6525 25.03 16.472 25.2633 16.3271 25.3916L16.2021 25.4854C16.0754 25.565 15.7078 25.7481 15.2715 25.5371V25.5381L11.6895 23.8291L11.6934 23.8203L9.00684 22.5361L9.00488 22.5352C8.28601 22.1867 7.81996 21.4462 7.81738 20.6455L7.79492 14.2803L7.79883 14.2793L7.79785 13.75V13.749C7.79749 13.2579 8.14067 12.9971 8.26465 12.918L8.26953 12.915Z" fill="#2FB66A"/>
</svg>
