<svg width="136" height="154" viewBox="0 0 136 154" fill="none" xmlns="http://www.w3.org/2000/svg">
<path d="M50.855 16.308V20.2921C50.855 24.6167 52.573 28.7641 55.6309 31.8221C58.6889 34.8801 62.8364 36.598 67.161 36.598H67.886C72.2106 36.598 76.3581 34.8801 79.4161 31.8221C82.474 28.7641 84.192 24.6167 84.192 20.2921V16.308C84.192 14.1667 83.7703 12.0463 82.9508 10.068C82.1314 8.08966 80.9302 6.29211 79.4161 4.77796C77.9019 3.2638 76.1044 2.06268 74.126 1.24323C72.1477 0.423774 70.0273 0.00201664 67.886 0.00201664H67.161C65.0197 0.00201664 62.8993 0.423774 60.921 1.24323C58.9426 2.06268 57.1451 3.2638 55.6309 4.77796C54.1168 6.29211 52.9156 8.08966 52.0962 10.068C51.2767 12.0463 50.855 14.1667 50.855 16.308ZM32.616 75.252V16.306C32.6158 11.9825 30.8985 7.83612 27.8419 4.77838C24.7853 1.72065 20.6395 0.0018584 16.316 2.48366e-06C14.1738 -0.00117979 12.0525 0.419738 10.0731 1.23865C8.09363 2.05756 6.29491 3.25845 4.77972 4.77271C3.26454 6.28696 2.06256 8.08492 1.24243 10.0638C0.422307 12.0428 0.000131037 14.1639 0 16.306V75.251C-1.61085e-08 77.3925 0.421816 79.5131 1.24139 81.4915C2.06097 83.47 3.26225 85.2676 4.77661 86.7818C6.29098 88.296 8.08876 89.4971 10.0673 90.3164C12.0459 91.1357 14.1665 91.5573 16.308 91.557C18.4494 91.5573 20.5699 91.1357 22.5484 90.3165C24.5269 89.4972 26.3247 88.2962 27.8391 86.7822C29.3534 85.2681 30.5547 83.4705 31.3743 81.4922C32.194 79.5138 32.6159 77.3934 32.616 75.252ZM84.193 75.252V71.268C84.193 66.9434 82.475 62.7959 79.4171 59.7379C76.3591 56.68 72.2116 54.962 67.887 54.962H67.162C62.8374 54.962 58.6899 56.68 55.6319 59.7379C52.5739 62.7959 50.856 66.9434 50.856 71.268V75.252C50.856 79.5766 52.5739 83.7241 55.6319 86.7821C58.6899 89.8401 62.8374 91.558 67.162 91.558H67.887C70.0285 91.558 72.149 91.1362 74.1275 90.3166C76.106 89.497 77.9036 88.2957 79.4178 86.7814C80.932 85.267 82.133 83.4692 82.9523 81.4907C83.7717 79.5121 84.1933 77.3915 84.193 75.25V75.252ZM135.045 75.252V16.306C135.045 14.1646 134.623 12.0441 133.803 10.0657C132.984 8.08727 131.782 6.28967 130.268 4.77552C128.754 3.26136 126.956 2.06035 124.977 1.24097C122.999 0.421587 120.878 -0.000128842 118.737 2.48366e-06C114.413 0.0018584 110.268 1.72065 107.211 4.77838C104.154 7.83612 102.437 11.9825 102.437 16.306V75.251C102.437 79.5746 104.154 83.7212 107.211 86.779C110.267 89.8368 114.413 91.5554 118.737 91.557C120.878 91.5573 122.999 91.1357 124.977 90.3165C126.956 89.4972 128.754 88.2962 130.268 86.7822C131.782 85.2681 132.984 83.4705 133.803 81.4922C134.623 79.5138 135.045 77.3934 135.045 75.252Z" fill="#3CA855"/>
<path d="M0 112.558H3.948V120.481H11.167V112.558H15.115V132.381H11.167V124.458H3.948V132.381H0V112.558Z" fill="black"/>
<path d="M30.755 132.381L28.742 126.837H22.649L20.633 132.381H16.423L23.589 112.559H27.798L34.964 132.381H30.755ZM25.681 118.391L24.081 122.862H27.299L25.681 118.391Z" fill="black"/>
<path d="M36.2729 132.381V112.559H42.213C43.0092 112.553 43.7979 112.713 44.529 113.029C45.2339 113.33 45.8735 113.765 46.412 114.31C46.9479 114.86 47.3778 115.504 47.68 116.21C48.0457 117.077 48.2017 118.017 48.1355 118.956C48.0693 119.894 47.7827 120.803 47.299 121.61C46.7526 122.516 45.9709 123.258 45.037 123.755L48.937 132.385H44.598L41.014 124.462H40.229V132.385L36.2729 132.381ZM40.2209 120.481H42.213C42.4752 120.487 42.7359 120.439 42.9789 120.34C43.2219 120.241 43.4421 120.093 43.626 119.906C43.8113 119.726 43.958 119.51 44.0569 119.272C44.1558 119.033 44.2048 118.777 44.201 118.519C44.2039 118.257 44.1545 117.997 44.0557 117.755C43.9568 117.512 43.8104 117.292 43.6252 117.107C43.4401 116.922 43.2198 116.775 42.9772 116.676C42.7347 116.578 42.4748 116.528 42.213 116.531H40.225L40.2209 120.481Z" fill="black"/>
<path d="M50.368 132.381V112.559H55.903C57.2224 112.552 58.529 112.818 59.74 113.342C62.1121 114.36 64.0009 116.252 65.014 118.626C65.5307 119.842 65.7971 121.149 65.7971 122.47C65.7971 123.79 65.5307 125.098 65.014 126.313C64.0017 128.687 62.1125 130.579 59.74 131.595C58.5294 132.12 57.2226 132.388 55.903 132.38L50.368 132.381ZM54.316 128.406H55.916C56.711 128.412 57.499 128.256 58.232 127.948C58.9371 127.655 59.5765 127.224 60.113 126.68C60.6504 126.131 61.0804 125.487 61.381 124.78C61.6914 124.048 61.8514 123.261 61.8514 122.466C61.8514 121.67 61.6914 120.883 61.381 120.151C60.7796 118.732 59.65 117.602 58.231 117.001C57.5 116.685 56.7114 116.524 55.915 116.529H54.315L54.316 128.406Z" fill="black"/>
<path d="M80.39 132.381L77.749 121.189L75.106 132.381H71.028L66.346 112.559H70.426L73.067 123.777L75.708 112.559H79.788L82.429 123.777L85.07 112.559H89.15L84.47 132.381H80.39Z" fill="black"/>
<path d="M103.48 132.381L101.467 126.837H95.374L93.359 132.381H89.15L96.315 112.559H100.524L107.69 132.381H103.48ZM98.407 118.391L96.807 122.862H100.025L98.407 118.391Z" fill="black"/>
<path d="M108.997 132.381V112.559H114.932C115.728 112.553 116.517 112.713 117.248 113.029C117.953 113.33 118.592 113.765 119.131 114.31C119.667 114.86 120.098 115.504 120.4 116.21C120.766 117.077 120.922 118.017 120.856 118.956C120.789 119.894 120.503 120.803 120.019 121.61C119.473 122.516 118.691 123.258 117.757 123.755L121.657 132.385H117.318L113.734 124.462H112.949V132.385L108.997 132.381ZM112.945 120.481H114.933C115.195 120.487 115.456 120.439 115.699 120.34C115.942 120.241 116.162 120.093 116.346 119.906C116.531 119.726 116.678 119.51 116.777 119.272C116.876 119.033 116.925 118.777 116.921 118.519C116.924 118.257 116.875 117.997 116.776 117.755C116.677 117.512 116.53 117.292 116.345 117.107C116.16 116.922 115.94 116.775 115.697 116.676C115.455 116.578 115.195 116.528 114.933 116.531H112.945V120.481Z" fill="black"/>
<path d="M123.094 112.558H135.046V116.532H127.046V120.481H135.046V124.456H127.046V128.404H135.046V132.379H123.094V112.558Z" fill="black"/>
<path d="M0 153.276V140.024H4.5C5.45037 140.003 6.39458 140.181 7.27197 140.547C8.02679 140.869 8.70194 141.353 9.25 141.964C9.78877 142.575 10.1971 143.29 10.45 144.064C10.721 144.892 10.8561 145.759 10.85 146.63C10.8632 147.561 10.7115 148.488 10.402 149.366C10.1256 150.144 9.69001 150.856 9.12299 151.456C8.55938 152.041 7.87757 152.499 7.12299 152.8C6.2879 153.128 5.39691 153.289 4.5 153.275L0 153.276ZM9.53802 146.63C9.54588 145.886 9.43239 145.146 9.20203 144.438C8.99514 143.802 8.6614 143.214 8.22101 142.711C7.78625 142.222 7.24735 141.836 6.64398 141.583C5.96334 141.305 5.23309 141.169 4.49799 141.183H1.30603V152.116H4.5C5.2464 152.131 5.98754 151.988 6.67499 151.697C7.28022 151.433 7.81899 151.037 8.25201 150.539C8.6842 150.03 9.01114 149.439 9.21399 148.803C9.43619 148.1 9.54558 147.367 9.53802 146.63Z" fill="black"/>
<path d="M22.249 152.116V153.273H13.349V140.021H22.083V141.177H14.649V145.956H21.126V147.056H14.649V152.114L22.249 152.116Z" fill="black"/>
<path d="M32.179 142.506C31.7659 142.055 31.2553 141.703 30.686 141.479C30.0099 141.208 29.2864 141.074 28.558 141.087C27.6556 141.011 26.7543 141.245 26.002 141.749C25.7388 141.967 25.5296 142.243 25.3908 142.555C25.252 142.867 25.1874 143.208 25.202 143.549C25.1883 143.889 25.2627 144.226 25.418 144.529C25.5788 144.802 25.8067 145.03 26.08 145.191C26.439 145.404 26.8251 145.568 27.228 145.677C27.6946 145.81 28.245 145.947 28.879 146.087C29.5258 146.218 30.1648 146.385 30.793 146.587C31.3068 146.748 31.7941 146.984 32.239 147.287C32.6203 147.548 32.9336 147.896 33.153 148.303C33.3788 148.767 33.4876 149.28 33.47 149.796C33.4834 150.346 33.3618 150.891 33.116 151.383C32.8802 151.83 32.5403 152.214 32.125 152.503C31.6677 152.817 31.155 153.042 30.614 153.165C29.9839 153.314 29.3383 153.386 28.691 153.381C26.7411 153.419 24.8461 152.734 23.371 151.458L24.024 150.395C24.2811 150.661 24.5657 150.898 24.873 151.104C25.2191 151.336 25.5876 151.533 25.973 151.692C26.393 151.864 26.8282 151.995 27.273 152.084C27.7528 152.179 28.2409 152.226 28.73 152.224C29.5917 152.272 30.4493 152.074 31.203 151.654C31.4914 151.471 31.7258 151.215 31.8817 150.911C32.0377 150.608 32.1096 150.268 32.09 149.927C32.1016 149.565 32.0145 149.207 31.838 148.891C31.6486 148.591 31.3892 148.341 31.082 148.163C30.6896 147.933 30.2695 147.755 29.832 147.631C29.334 147.482 28.7553 147.333 28.096 147.183C27.3987 147.022 26.789 146.856 26.267 146.683C25.7943 146.534 25.3471 146.314 24.941 146.03C24.5973 145.788 24.3188 145.464 24.13 145.088C23.9373 144.663 23.8446 144.2 23.859 143.734C23.8488 143.171 23.9667 142.612 24.204 142.101C24.4281 141.627 24.7646 141.215 25.184 140.901C25.6339 140.571 26.1397 140.324 26.677 140.173C27.2951 139.999 27.9348 139.914 28.577 139.921C29.3819 139.907 30.1825 140.043 30.938 140.321C31.624 140.586 32.2587 140.969 32.814 141.451L32.179 142.506Z" fill="black"/>
<path d="M35.765 153.276V140.024H37.071V153.276H35.765Z" fill="black"/>
<path d="M49.966 151.335C49.447 151.963 48.7976 152.47 48.0628 152.821C47.328 153.172 46.5254 153.359 45.711 153.369C44.8522 153.378 44.004 153.18 43.238 152.792C42.4924 152.412 41.8267 151.892 41.277 151.261C40.7214 150.624 40.2815 149.894 39.977 149.105C39.6687 148.317 39.5107 147.478 39.511 146.631C39.508 145.764 39.6628 144.904 39.968 144.093C40.2591 143.308 40.6927 142.584 41.247 141.956C41.7912 141.342 42.4507 140.842 43.188 140.483C43.9494 140.112 44.7869 139.923 45.634 139.931C46.2318 139.925 46.8279 139.997 47.407 140.145C47.9092 140.276 48.39 140.478 48.835 140.745C49.2416 140.992 49.6071 141.3 49.918 141.66C50.2231 142.016 50.4835 142.408 50.693 142.827L49.684 143.498C49.3084 142.74 48.7169 142.11 47.984 141.687C47.2565 141.294 46.44 141.094 45.613 141.108C44.9225 141.098 44.2402 141.258 43.626 141.574C43.0416 141.88 42.5266 142.303 42.113 142.817C41.6896 143.346 41.3638 143.947 41.151 144.59C40.9273 145.255 40.8138 145.952 40.815 146.653C40.8116 147.38 40.9414 148.101 41.198 148.781C41.439 149.428 41.7962 150.025 42.252 150.544C42.6946 151.043 43.2307 151.451 43.83 151.744C44.442 152.045 45.116 152.199 45.798 152.192C46.5553 152.193 47.3016 152.01 47.973 151.66C48.7437 151.239 49.4199 150.664 49.96 149.971V147.771H47.012V146.762H51.062V153.277H49.962L49.966 151.335Z" fill="black"/>
<path d="M55.062 142.45V153.276H53.756V140.024H54.763L63.537 151.055V140.042H64.844V153.276H63.705L55.062 142.45Z" fill="black"/>
<path d="M83.377 140.024V153.276H82.089V147.076H74.231V153.276H72.925V140.024H74.231V145.924H82.089V140.024H83.377Z" fill="black"/>
<path d="M92.039 153.369C91.1633 153.38 90.2972 153.185 89.51 152.801C88.7594 152.433 88.09 151.919 87.541 151.288C86.9889 150.653 86.5584 149.923 86.271 149.132C85.9746 148.338 85.8229 147.498 85.823 146.65C85.8206 145.782 85.9817 144.921 86.298 144.112C86.6035 143.322 87.0497 142.594 87.615 141.964C88.1705 141.345 88.8426 140.841 89.593 140.481C90.3613 140.111 91.2043 139.922 92.057 139.929C92.935 139.919 93.8025 140.121 94.586 140.517C95.335 140.896 96.0015 141.419 96.547 142.057C97.09 142.696 97.5162 143.426 97.806 144.213C98.1016 144.998 98.2533 145.829 98.254 146.668C98.2533 148.393 97.6188 150.057 96.471 151.344C95.918 151.96 95.2489 152.462 94.502 152.819C93.7339 153.188 92.8913 153.376 92.039 153.369ZM87.129 146.65C87.1267 147.359 87.2469 148.063 87.484 148.731C87.7092 149.378 88.0504 149.979 88.491 150.504C88.9191 151.015 89.446 151.434 90.04 151.736C90.6603 152.047 91.3463 152.203 92.04 152.193C92.7477 152.203 93.4467 152.036 94.074 151.708C94.6716 151.395 95.1987 150.963 95.623 150.438C96.0507 149.909 96.3823 149.309 96.603 148.665C97.0719 147.338 97.0655 145.888 96.585 144.565C96.3543 143.92 96.0095 143.323 95.567 142.8C95.1372 142.294 94.6109 141.879 94.019 141.579C93.3932 141.275 92.7061 141.119 92.0104 141.122C91.3147 141.125 90.629 141.288 90.006 141.597C89.4076 141.904 88.88 142.333 88.457 142.856C88.0293 143.386 87.6977 143.986 87.477 144.63C87.2471 145.279 87.1294 145.962 87.129 146.65Z" fill="black"/>
<path d="M106.093 152.193C106.816 152.219 107.534 152.056 108.174 151.718C108.711 151.416 109.166 150.987 109.499 150.468C109.838 149.928 110.072 149.33 110.19 148.703C110.322 148.045 110.389 147.375 110.39 146.703V140.021H111.696V146.703C111.7 147.561 111.599 148.416 111.396 149.25C111.215 150.012 110.889 150.731 110.436 151.369C109.986 151.986 109.393 152.485 108.709 152.824C107.899 153.207 107.01 153.392 106.114 153.365C105.2 153.395 104.294 153.2 103.473 152.797C102.786 152.442 102.193 151.928 101.746 151.297C101.302 150.654 100.985 149.932 100.813 149.17C100.625 148.362 100.532 147.535 100.534 146.706V140.024H101.822V146.706C101.821 147.389 101.889 148.071 102.027 148.74C102.149 149.363 102.386 149.958 102.727 150.494C103.058 151.006 103.51 151.429 104.043 151.726C104.674 152.057 105.381 152.218 106.093 152.193Z" fill="black"/>
<path d="M122.555 142.506C122.142 142.055 121.631 141.703 121.062 141.479C120.386 141.208 119.662 141.074 118.934 141.087C118.031 141.011 117.13 141.245 116.377 141.749C116.114 141.967 115.905 142.243 115.766 142.555C115.627 142.867 115.562 143.208 115.577 143.549C115.563 143.889 115.638 144.226 115.793 144.529C115.954 144.802 116.182 145.03 116.455 145.191C116.814 145.404 117.2 145.568 117.603 145.677C118.07 145.81 118.62 145.947 119.254 146.087C119.901 146.218 120.54 146.385 121.168 146.587C121.682 146.748 122.169 146.984 122.614 147.287C122.995 147.548 123.309 147.896 123.528 148.303C123.754 148.767 123.863 149.28 123.846 149.796C123.859 150.346 123.738 150.891 123.492 151.383C123.257 151.83 122.917 152.214 122.502 152.503C122.045 152.817 121.532 153.042 120.991 153.165C120.361 153.314 119.715 153.386 119.068 153.381C117.118 153.419 115.223 152.734 113.748 151.458L114.401 150.395C114.658 150.661 114.943 150.898 115.25 151.104C115.596 151.336 115.965 151.533 116.35 151.692C116.77 151.864 117.205 151.995 117.65 152.084C118.13 152.179 118.618 152.226 119.107 152.224C119.969 152.272 120.826 152.074 121.58 151.654C121.868 151.471 122.103 151.215 122.259 150.911C122.415 150.608 122.487 150.268 122.467 149.927C122.479 149.565 122.392 149.207 122.215 148.891C122.026 148.591 121.766 148.341 121.459 148.163C121.067 147.933 120.647 147.755 120.209 147.631C119.711 147.482 119.132 147.333 118.473 147.183C117.776 147.022 117.166 146.856 116.644 146.683C116.171 146.534 115.724 146.314 115.318 146.03C114.974 145.787 114.696 145.464 114.507 145.088C114.315 144.663 114.222 144.2 114.237 143.734C114.227 143.171 114.345 142.612 114.582 142.101C114.806 141.627 115.143 141.215 115.562 140.901C116.012 140.571 116.518 140.324 117.055 140.173C117.675 139.998 118.316 139.913 118.96 139.921C119.765 139.907 120.565 140.043 121.32 140.321C122.006 140.586 122.641 140.969 123.196 141.451L122.555 142.506Z" fill="black"/>
<path d="M135.043 152.116V153.273H126.143V140.021H134.877V141.177H127.449V145.956H133.926V147.056H127.449V152.114L135.043 152.116Z" fill="black"/>
</svg>
