<svg width="20" height="19" viewBox="0 0 20 19" fill="none" xmlns="http://www.w3.org/2000/svg">
<path fill-rule="evenodd" clip-rule="evenodd" d="M9.64517 0C4.30014 0 0 4.11672 0 9.23377C0 13.312 2.77299 16.7747 6.59086 18.0058C7.07312 18.0828 7.23388 17.8135 7.23388 17.5442C7.23388 17.3133 7.23388 16.7362 7.23388 15.9667C4.54127 16.5438 3.97863 14.7356 3.97863 14.7356C3.53656 13.6583 2.89355 13.389 2.89355 13.389C2.00941 12.8119 2.97393 12.8119 2.97393 12.8119C3.93844 12.8888 4.46089 13.7737 4.46089 13.7737C5.30484 15.1972 6.71143 14.774 7.27406 14.5432C7.35444 13.9276 7.59557 13.5429 7.87689 13.312C5.74691 13.0812 3.49637 12.2732 3.49637 8.7336C3.49637 7.73328 3.85807 6.88685 4.50108 6.27127C4.4207 6.04042 4.05901 5.11704 4.58145 3.80893C4.58145 3.80893 5.38522 3.57808 7.23388 4.77078C7.99745 4.57841 8.8414 4.46299 9.64517 4.46299C10.4489 4.46299 11.2929 4.57841 12.0565 4.77078C13.9051 3.57808 14.7089 3.80893 14.7089 3.80893C15.2313 5.07857 14.9098 6.00195 14.7893 6.27127C15.3921 6.92532 15.794 7.73328 15.794 8.7336C15.794 12.2732 13.5434 13.0427 11.3733 13.2735C11.735 13.5429 12.0163 14.12 12.0163 14.9664C12.0163 16.1976 12.0163 17.1979 12.0163 17.5057C12.0163 17.7365 12.177 18.0443 12.6995 17.9674C16.5173 16.7747 19.2903 13.312 19.2903 9.23377C19.2903 4.11672 14.9902 0 9.64517 0Z" fill="#191D23"/>
</svg>
