<svg width="24" height="24" viewBox="0 0 24 24" fill="none" xmlns="http://www.w3.org/2000/svg">
<path fill-rule="evenodd" clip-rule="evenodd" d="M10.197 1.50047L9.00545 1.71851C8.62661 1.86959 8.28164 2.0946 7.99068 2.38042C7.69972 2.66624 7.4686 3.00715 7.3108 3.38324C7.15299 3.75934 7.07166 4.16309 7.07156 4.57095V5.24989H4.10719L4.10493 5.24989C3.4147 5.25197 2.75333 5.52709 2.26527 6.01516C1.7772 6.50322 1.50208 7.16459 1.5 7.85482L1.5 7.85708V11.1561C1.5 11.3799 1.58889 11.5945 1.74713 11.7528C1.90536 11.911 2.11998 11.9999 2.34375 11.9999H3.60516C4.54513 11.9999 5.37683 12.8378 5.3907 13.8315C5.40527 14.8678 4.56779 15.7499 3.64266 15.7499H2.34375C2.11998 15.7499 1.90536 15.8388 1.74713 15.997C1.58889 16.1553 1.5 16.3699 1.5 16.5936V19.8927L1.5 19.895C1.50208 20.5852 1.7772 21.2466 2.26527 21.7346C2.75333 22.2227 3.4147 22.4978 4.10493 22.4999L7.40625 22.4999C7.63002 22.4999 7.84464 22.411 8.00287 22.2528C8.16111 22.0945 8.25 21.8799 8.25 21.6561V20.675C8.25 19.6504 9.09754 18.7736 10.0957 18.7502C11.1883 18.7248 12 19.4694 12 20.3572V21.6561C12 21.8799 12.0889 22.0945 12.2471 22.2528C12.4054 22.411 12.62 22.4999 12.8438 22.4999H16.1784C16.8605 22.4999 17.5145 22.229 17.9968 21.7467C18.4791 21.2644 18.75 20.6103 18.75 19.9283V16.9283H19.4288C21.1543 16.9283 22.5 15.5135 22.5 13.8158C22.5 12.0629 21.0367 10.7858 19.3903 10.7858H18.75V7.82145C18.75 7.13943 18.4791 6.48534 17.9968 6.00308C17.5145 5.52082 16.8605 5.24989 16.1784 5.24989H13.2141V4.60958C13.2141 2.94475 11.8945 1.52997 10.197 1.50047ZM9.56108 3.11181C9.75493 3.0345 9.96223 2.99658 10.1709 3.00024C11.0177 3.01491 11.7141 3.73009 11.7141 4.60958V5.90614C11.7141 6.12991 11.803 6.34453 11.9612 6.50276C12.1194 6.661 12.334 6.74989 12.5578 6.74989H16.1784C16.4626 6.74989 16.7352 6.86279 16.9361 7.06374C17.1371 7.2647 17.25 7.53726 17.25 7.82145V11.4421C17.25 11.6659 17.3389 11.8805 17.4971 12.0387C17.6554 12.1969 17.87 12.2858 18.0938 12.2858H19.3903C20.2883 12.2858 21 12.9691 21 13.8158C21 14.7178 20.2935 15.4283 19.4288 15.4283H18.0938C17.87 15.4283 17.6554 15.5172 17.4971 15.6755C17.3389 15.8337 17.25 16.0483 17.25 16.2721V19.9283C17.25 20.2125 17.1371 20.4851 16.9361 20.686C16.7352 20.887 16.4626 20.9999 16.1784 20.9999H13.5V20.3572C13.5 18.4354 11.7897 17.2104 10.0605 17.2506C8.22277 17.2937 6.75 18.861 6.75 20.675V20.9999H4.10861C3.81494 20.9988 3.5336 20.8816 3.32593 20.674C3.11829 20.4663 3.00114 20.185 3 19.8914V17.2499H3.64266C5.50937 17.2499 6.91531 15.5744 6.89055 13.8104C6.86595 12.0508 5.4186 10.4999 3.60516 10.4999H3V7.85836C3.00114 7.56474 3.11829 7.28345 3.32593 7.07582C3.53355 6.86819 3.81482 6.75105 4.10842 6.74989H7.72781C7.95159 6.74989 8.1662 6.661 8.32443 6.50276C8.48267 6.34453 8.57156 6.12991 8.57156 5.90614V4.57114C8.57164 4.36251 8.61325 4.15599 8.69397 3.96361C8.77472 3.77117 8.89298 3.59674 9.04185 3.45049C9.19073 3.30424 9.36724 3.18911 9.56108 3.11181Z" fill="#1E293B"/>
</svg>
