<svg width="24" height="24" viewBox="0 0 24 24" fill="none" xmlns="http://www.w3.org/2000/svg">
<path fill-rule="evenodd" clip-rule="evenodd" d="M14.8671 0.750005C14.9899 0.749582 15.1113 0.7753 15.2234 0.825449C15.3354 0.875594 15.4355 0.949021 15.517 1.04086C15.5985 1.13269 15.6595 1.24082 15.6959 1.35804C15.7324 1.47526 15.7435 1.5989 15.7284 1.72075C15.7267 1.73514 15.7245 1.74947 15.7219 1.76373L14.3995 9H19.5C19.7891 9 20.0524 9.1661 20.1769 9.42696C20.3014 9.68783 20.2649 9.99701 20.0831 10.2217L9.80883 22.9211C9.73076 23.0204 9.63169 23.1015 9.51859 23.1583C9.39892 23.2185 9.26689 23.2499 9.13299 23.25L9.1322 22.5L9.13407 23.25C9.13371 23.25 9.13335 23.25 9.13299 23.25C9.00749 23.2502 8.88348 23.2229 8.76965 23.17C8.65548 23.1171 8.55432 23.0397 8.47331 22.9434C8.3923 22.8471 8.33339 22.7342 8.30074 22.6126C8.2681 22.491 8.26252 22.3638 8.28438 22.2399L8.28508 22.2359L9.60128 15H10.5V14.25L9.76212 14.1158L9.60128 15H4.50001C4.21095 15 3.94763 14.8339 3.82313 14.573C3.69864 14.3122 3.73514 14.003 3.91696 13.7782L14.1886 1.08337C14.1826 1.09107 14.1767 1.09888 14.171 1.1068L14.7783 1.54688L14.1952 1.07512L14.1886 1.08337C14.2658 0.984024 14.3639 0.902671 14.4761 0.845136C14.597 0.783138 14.7313 0.750544 14.8671 0.750005ZM13.7972 3.95184L6.0716 13.5H10.5C10.7224 13.5 10.9333 13.5987 11.0758 13.7695C11.2183 13.9402 11.2777 14.1654 11.2379 14.3842L10.2088 20.0418L17.9285 10.5H13.5C13.2775 10.5 13.0665 10.4012 12.924 10.2303C12.7815 10.0594 12.7222 9.83406 12.7622 9.61518L13.7972 3.95184Z" fill="#1E293B"/>
</svg>
