<svg width="24" height="24" viewBox="0 0 24 24" fill="none" xmlns="http://www.w3.org/2000/svg">
<path fill-rule="evenodd" clip-rule="evenodd" d="M6 4.5C5.17157 4.5 4.5 5.17157 4.5 6V18C4.5 18.8284 5.17157 19.5 6 19.5H18C18.8284 19.5 19.5 18.8284 19.5 18V6C19.5 5.17157 18.8284 4.5 18 4.5H6ZM3 6C3 4.34315 4.34315 3 6 3H18C19.6569 3 21 4.34315 21 6V18C21 19.6569 19.6569 21 18 21H6C4.34315 21 3 19.6569 3 18V6Z" fill="#1E293B"/>
<path fill-rule="evenodd" clip-rule="evenodd" d="M6 7.5C6 6.67157 6.67157 6 7.5 6H16.5C17.3284 6 18 6.67157 18 7.5V16.5C18 17.3284 17.3284 18 16.5 18H7.5C6.67157 18 6 17.3284 6 16.5V7.5ZM16.5 7.5H7.5V16.5H16.5V7.5Z" fill="#1E293B"/>
<path fill-rule="evenodd" clip-rule="evenodd" d="M12 1.5C12.4142 1.5 12.75 1.83579 12.75 2.25V3.75C12.75 4.16421 12.4142 4.5 12 4.5C11.5858 4.5 11.25 4.16421 11.25 3.75V2.25C11.25 1.83579 11.5858 1.5 12 1.5Z" fill="#1E293B"/>
<path fill-rule="evenodd" clip-rule="evenodd" d="M15.75 1.5C16.1642 1.5 16.5 1.83579 16.5 2.25V3.75C16.5 4.16421 16.1642 4.5 15.75 4.5C15.3358 4.5 15 4.16421 15 3.75V2.25C15 1.83579 15.3358 1.5 15.75 1.5Z" fill="#1E293B"/>
<path fill-rule="evenodd" clip-rule="evenodd" d="M8.25 1.5C8.66421 1.5 9 1.83579 9 2.25V3.75C9 4.16421 8.66421 4.5 8.25 4.5C7.83579 4.5 7.5 4.16421 7.5 3.75V2.25C7.5 1.83579 7.83579 1.5 8.25 1.5Z" fill="#1E293B"/>
<path fill-rule="evenodd" clip-rule="evenodd" d="M12 19.5C12.4142 19.5 12.75 19.8358 12.75 20.25V21.75C12.75 22.1642 12.4142 22.5 12 22.5C11.5858 22.5 11.25 22.1642 11.25 21.75V20.25C11.25 19.8358 11.5858 19.5 12 19.5Z" fill="#1E293B"/>
<path fill-rule="evenodd" clip-rule="evenodd" d="M15.75 19.5C16.1642 19.5 16.5 19.8358 16.5 20.25V21.75C16.5 22.1642 16.1642 22.5 15.75 22.5C15.3358 22.5 15 22.1642 15 21.75V20.25C15 19.8358 15.3358 19.5 15.75 19.5Z" fill="#1E293B"/>
<path fill-rule="evenodd" clip-rule="evenodd" d="M8.25 19.5C8.66421 19.5 9 19.8358 9 20.25V21.75C9 22.1642 8.66421 22.5 8.25 22.5C7.83579 22.5 7.5 22.1642 7.5 21.75V20.25C7.5 19.8358 7.83579 19.5 8.25 19.5Z" fill="#1E293B"/>
<path fill-rule="evenodd" clip-rule="evenodd" d="M19.5 12C19.5 11.5858 19.8358 11.25 20.25 11.25H21.75C22.1642 11.25 22.5 11.5858 22.5 12C22.5 12.4142 22.1642 12.75 21.75 12.75H20.25C19.8358 12.75 19.5 12.4142 19.5 12Z" fill="#1E293B"/>
<path fill-rule="evenodd" clip-rule="evenodd" d="M19.5 15.75C19.5 15.3358 19.8358 15 20.25 15H21.75C22.1642 15 22.5 15.3358 22.5 15.75C22.5 16.1642 22.1642 16.5 21.75 16.5H20.25C19.8358 16.5 19.5 16.1642 19.5 15.75Z" fill="#1E293B"/>
<path fill-rule="evenodd" clip-rule="evenodd" d="M19.5 8.25C19.5 7.83579 19.8358 7.5 20.25 7.5H21.75C22.1642 7.5 22.5 7.83579 22.5 8.25C22.5 8.66421 22.1642 9 21.75 9H20.25C19.8358 9 19.5 8.66421 19.5 8.25Z" fill="#1E293B"/>
<path fill-rule="evenodd" clip-rule="evenodd" d="M1.5 12C1.5 11.5858 1.83579 11.25 2.25 11.25H3.75C4.16421 11.25 4.5 11.5858 4.5 12C4.5 12.4142 4.16421 12.75 3.75 12.75H2.25C1.83579 12.75 1.5 12.4142 1.5 12Z" fill="#1E293B"/>
<path fill-rule="evenodd" clip-rule="evenodd" d="M1.5 15.75C1.5 15.3358 1.83579 15 2.25 15H3.75C4.16421 15 4.5 15.3358 4.5 15.75C4.5 16.1642 4.16421 16.5 3.75 16.5H2.25C1.83579 16.5 1.5 16.1642 1.5 15.75Z" fill="#1E293B"/>
<path fill-rule="evenodd" clip-rule="evenodd" d="M1.5 8.25C1.5 7.83579 1.83579 7.5 2.25 7.5H3.75C4.16421 7.5 4.5 7.83579 4.5 8.25C4.5 8.66421 4.16421 9 3.75 9H2.25C1.83579 9 1.5 8.66421 1.5 8.25Z" fill="#1E293B"/>
</svg>
